# xmcd
#
# Track frame offsets:
#	150
#	12002
#	26203
#	50335
#	64902
#	85674
#	111454
#	134499
#	153196
#	169580
#	180893
#	198837
#
# Disc length: 2985 seconds
#
# Revision: 0
# Processed by: cddbd v1.5.2PL0 Copyright (c) Steve Scherf et al.
# Submitted via: audiograbber 1.83.01
#
DISCID=920ba70c
DTITLE=Various Artist - Left Behind Tribulation Force II - Southern Gospel
DYEAR=2002
DGENRE=Gospel
TTITLE0=The Hoppers - When we get home
TTITLE1=The Isaacs - Stand still
TTITLE2=Gold City - I bowed on my knees and cried holy
TTITLE3=The John Hagee Family - Run and tell
TTITLE4=Walt Mills - He's alive
TTITLE5=Various Artist - I will follow Christ
TTITLE6=Journeymen Quartet - We will not fail
TTITLE7=The Hoppers - Hope has hands
TTITLE8=The Florida Boys - Because He lives
TTITLE9=Gold City - In dat great gettin' up morning
TTITLE10=The Florida Boys - How great Thou art
TTITLE11=Walt Mills - Thank You
EXTD=
EXTT0=
EXTT1=
EXTT2=
EXTT3=
EXTT4=
EXTT5=
EXTT6=
EXTT7=
EXTT8=
EXTT9=
EXTT10=
EXTT11=
PLAYORDER=
